.
 
http://www.scenetime.com    -   SceneTime [ We been having it ] !!!


How come you press harder on a remote control when you know the battery is dead? so you better seed to get speed ;)

        Seed back for speed


...................................NFO:.................................................
[img]http://leetleech.org/images/06241008086156321189.jpg[/img]



          Hop 2011 DVDRIP XVID AC3 - SCR0N




IMDB: http://www.imdb.com/title/tt1411704/



General


Complete name                    : Hop 2011 DVDRIP XVID AC3 - SCR0N.avi
Format                           : AVI
Format/Info                      : Audio Video Interleave
File size                        : 1.37 GiB
Duration                         : 1h 31mn
Overall bit rate                 : 2 151 Kbps



Video


ID                               : 0
Format                           : MPEG-4 Visual
Format profile                   : Advanced Simple@L5
Format settings, BVOP            : 2
Format settings, QPel            : No
Format settings, GMC             : No warppoints
Format settings, Matrix          : Default (H.263)
Codec ID                         : XVID
Codec ID/Hint                    : XviD
Duration                         : 1h 31mn
Bit rate                         : 1 695 Kbps
Width                            : 720 pixels
Height                           : 384 pixels
Display aspect ratio             : 1.875
Frame rate                       : 25.000 fps
Color space                      : YUV
Chroma subsampling               : 4:2:0
Bit depth                        : 8 bits
Scan type                        : Progressive
Compression mode                 : Lossy
Bits/(Pixel*Frame)               : 0.245
Stream size                      : 1.08 GiB (79%)



Audio


ID                               : 1
Format                           : AC-3
Format/Info                      : Audio Coding 3
Mode extension                   : CM (complete main)
Codec ID                         : 2000
Duration                         : 1h 31mn
Bit rate mode                    : Constant
Bit rate                         : 448 Kbps
Channel(s)                       : 6 channels
Channel positions                : Front: L C R, Side: L R, LFE
Sampling rate                    : 48.0 KHz
Bit depth                        : 16 bits
Compression mode                 : Lossy
Stream size                      : 292 MiB (21%)
Alignment                        : Aligned on interleaves
Interleave, duration             : 64 ms (1.60 video frames)
Interleave, preload duration     : 192 ms





PLOT
 
  Storyline

Blending state-of-the-art animation with live action, Hop tells the comic tale of Fred, an out-of-work slacker who accidentally injures the Easter Bunny and must take him in as he recovers. As Fred struggles with the world's worst house guest, both will learn what it takes to finally grow up. Written by Universal Pictures   


Genres:

Animation | Comedy | Family | Fantasy 



RATING 5.1/10  

Director:
Tim Hill
Writers:
Cinco Paul (screenplay), Ken Daurio (screenplay), 




Screens


[img]http://leetleech.org/images/30999185203858702960.jpg[/img]
[img]http://leetleech.org/images/10796355933727469959.jpg[/img]
[img]http://leetleech.org/images/79035735858936516996.jpg[/img]
[img]http://leetleech.org/images/58288430871928198167.jpg[/img]
[img]http://leetleech.org/images/17004924341145951809.jpg[/img]
[img]http://leetleech.org/images/59650717957869345356.jpg[/img]
[img]http://leetleech.org/images/31174449992587693723.jpg[/img]





GREETS:

SRON